<svg width="24" height="24" viewBox="0 0 24 24" fill="none" xmlns="http://www.w3.org/2000/svg">
<path d="M17 5.66667C17 8.244 14.7614 10.3333 12 10.3333C9.23858 10.3333 7 8.244 7 5.66667C7 3.08934 9.23858 1 12 1C14.7614 1 17 3.08934 17 5.66667Z" fill="url(#paint0_linear_418_13687)"/>
<path d="M9.85714 11.6667C5.56191 11.6667 2 14.7234 2 18.5833C2 22 4 23 7 23H17C20 23 22 22 22 18.5833C22 14.7234 18.4381 11.6667 14.1429 11.6667H9.85714Z" fill="url(#paint1_linear_418_13687)"/>
<path fill-rule="evenodd" clip-rule="evenodd" d="M12 8.83333C14.0322 8.83333 15.5 7.31978 15.5 5.66667C15.5 4.01356 14.0322 2.5 12 2.5C9.96785 2.5 8.5 4.01356 8.5 5.66667C8.5 7.31978 9.96785 8.83333 12 8.83333ZM14.1429 11.6667C18.4381 11.6667 22 14.7234 22 18.5833C22 22 20 23 17 23H7C4 23 2 22 2 18.5833C2 14.7234 5.56191 11.6667 9.85714 11.6667H14.1429ZM10.6709 10.1667C8.55463 9.6234 7 7.81448 7 5.66667C7 3.08934 9.23858 1 12 1C14.7614 1 17 3.08934 17 5.66667C17 7.81448 15.4454 9.6234 13.3291 10.1667C12.9059 10.2753 12.4602 10.3333 12 10.3333C11.5398 10.3333 11.0941 10.2753 10.6709 10.1667ZM9.85714 13.1667C6.1932 13.1667 3.5 15.7361 3.5 18.5833C3.5 19.9908 3.8974 20.5805 4.29297 20.8866C4.77185 21.2572 5.61099 21.5 7 21.5H17C18.389 21.5 19.2281 21.2572 19.707 20.8866C20.1026 20.5805 20.5 19.9908 20.5 18.5833C20.5 15.7361 17.8068 13.1667 14.1429 13.1667H9.85714Z" fill="url(#paint2_linear_418_13687)"/>
<defs>
<linearGradient id="paint0_linear_418_13687" x1="12" y1="1" x2="12" y2="23" gradientUnits="userSpaceOnUse">
<stop stop-color="#F7F8FA"/>
<stop offset="1" stop-color="#CCE0FF"/>
</linearGradient>
<linearGradient id="paint1_linear_418_13687" x1="12" y1="1" x2="12" y2="23" gradientUnits="userSpaceOnUse">
<stop stop-color="#F7F8FA"/>
<stop offset="1" stop-color="#CCE0FF"/>
</linearGradient>
<linearGradient id="paint2_linear_418_13687" x1="12" y1="1" x2="12" y2="23" gradientUnits="userSpaceOnUse">
<stop stop-color="#CCE0FF"/>
<stop offset="1" stop-color="white"/>
</linearGradient>
</defs>
</svg>
