<svg width="24" height="24" viewBox="0 0 24 24" fill="none" xmlns="http://www.w3.org/2000/svg">
<path d="M8.86957 1C7.14067 1 5.73913 2.4042 5.73913 4.13636V20.8636C5.73913 22.5958 7.14067 24 8.86957 24H15.1304C16.8593 24 18.2609 22.5958 18.2609 20.8636V4.13636C18.2609 2.4042 16.8593 1 15.1304 1H8.86957Z" fill="url(#paint0_linear_418_13685)"/>
<path d="M2.08696 4.65909C0.934362 4.65909 0 5.59522 0 6.75V18.25C0 19.4048 0.934362 20.3409 2.08696 20.3409C3.23955 20.3409 4.17391 19.4048 4.17391 18.25V6.75C4.17391 5.59522 3.23955 4.65909 2.08696 4.65909Z" fill="url(#paint1_linear_418_13685)"/>
<path d="M21.913 4.65909C20.7604 4.65909 19.8261 5.59522 19.8261 6.75V18.25C19.8261 19.4048 20.7605 20.3409 21.913 20.3409C23.0656 20.3409 24 19.4048 24 18.25V6.75C24 5.59522 23.0656 4.65909 21.913 4.65909Z" fill="url(#paint2_linear_418_13685)"/>
<path fill-rule="evenodd" clip-rule="evenodd" d="M8.86957 2.5C7.97178 2.5 7.23913 3.22995 7.23913 4.13636V20.8636C7.23913 21.7701 7.97178 22.5 8.86957 22.5H15.1304C16.0282 22.5 16.7609 21.7701 16.7609 20.8636V4.13636C16.7609 3.22995 16.0282 2.5 15.1304 2.5H8.86957ZM2.08696 6.15909C1.76546 6.15909 1.5 6.42097 1.5 6.75V18.25C1.5 18.579 1.76546 18.8409 2.08696 18.8409C2.40845 18.8409 2.67391 18.579 2.67391 18.25V6.75C2.67391 6.42097 2.40845 6.15909 2.08696 6.15909ZM21.913 6.15909C21.5916 6.15909 21.3261 6.42097 21.3261 6.75V18.25C21.3261 18.579 21.5916 18.8409 21.913 18.8409C22.2345 18.8409 22.5 18.579 22.5 18.25V6.75C22.5 6.42097 22.2345 6.15909 21.913 6.15909ZM8.86957 1C7.14067 1 5.73913 2.4042 5.73913 4.13636V20.8636C5.73913 22.5958 7.14067 24 8.86957 24H15.1304C16.8593 24 18.2609 22.5958 18.2609 20.8636V4.13636C18.2609 2.4042 16.8593 1 15.1304 1H8.86957ZM2.08696 4.65909C0.934362 4.65909 0 5.59522 0 6.75V18.25C0 19.4048 0.934362 20.3409 2.08696 20.3409C3.23955 20.3409 4.17391 19.4048 4.17391 18.25V6.75C4.17391 5.59522 3.23955 4.65909 2.08696 4.65909ZM19.8261 6.75C19.8261 5.59522 20.7604 4.65909 21.913 4.65909C23.0656 4.65909 24 5.59522 24 6.75V18.25C24 19.4048 23.0656 20.3409 21.913 20.3409C20.7605 20.3409 19.8261 19.4048 19.8261 18.25V6.75Z" fill="url(#paint3_linear_418_13685)"/>
<defs>
<linearGradient id="paint0_linear_418_13685" x1="12" y1="1" x2="12" y2="24" gradientUnits="userSpaceOnUse">
<stop stop-color="#F7F8FA"/>
<stop offset="1" stop-color="#CCE0FF"/>
</linearGradient>
<linearGradient id="paint1_linear_418_13685" x1="12" y1="1" x2="12" y2="24" gradientUnits="userSpaceOnUse">
<stop stop-color="#F7F8FA"/>
<stop offset="1" stop-color="#CCE0FF"/>
</linearGradient>
<linearGradient id="paint2_linear_418_13685" x1="12" y1="1" x2="12" y2="24" gradientUnits="userSpaceOnUse">
<stop stop-color="#F7F8FA"/>
<stop offset="1" stop-color="#CCE0FF"/>
</linearGradient>
<linearGradient id="paint3_linear_418_13685" x1="12" y1="1" x2="12" y2="24" gradientUnits="userSpaceOnUse">
<stop stop-color="#CCE0FF"/>
<stop offset="1" stop-color="white"/>
</linearGradient>
</defs>
</svg>
