<svg width="24" height="23" viewBox="0 0 24 23" fill="none" xmlns="http://www.w3.org/2000/svg">
<path fill-rule="evenodd" clip-rule="evenodd" d="M8.86957 1.5C7.97178 1.5 7.23913 2.22995 7.23913 3.13636V19.8636C7.23913 20.7701 7.97178 21.5 8.86957 21.5H15.1304C16.0282 21.5 16.7609 20.7701 16.7609 19.8636V3.13636C16.7609 2.22995 16.0282 1.5 15.1304 1.5H8.86957ZM2.08696 5.15909C1.76546 5.15909 1.5 5.42097 1.5 5.75V17.25C1.5 17.579 1.76546 17.8409 2.08696 17.8409C2.40845 17.8409 2.67391 17.579 2.67391 17.25V5.75C2.67391 5.42097 2.40845 5.15909 2.08696 5.15909ZM21.913 5.15909C21.5916 5.15909 21.3261 5.42097 21.3261 5.75V17.25C21.3261 17.579 21.5916 17.8409 21.913 17.8409C22.2345 17.8409 22.5 17.579 22.5 17.25V5.75C22.5 5.42097 22.2345 5.15909 21.913 5.15909ZM8.86957 0C7.14067 0 5.73913 1.4042 5.73913 3.13636V19.8636C5.73913 21.5958 7.14067 23 8.86957 23H15.1304C16.8593 23 18.2609 21.5958 18.2609 19.8636V3.13636C18.2609 1.4042 16.8593 0 15.1304 0H8.86957ZM2.08696 3.65909C0.934362 3.65909 0 4.59522 0 5.75V17.25C0 18.4048 0.934362 19.3409 2.08696 19.3409C3.23955 19.3409 4.17391 18.4048 4.17391 17.25V5.75C4.17391 4.59522 3.23955 3.65909 2.08696 3.65909ZM19.8261 5.75C19.8261 4.59522 20.7604 3.65909 21.913 3.65909C23.0656 3.65909 24 4.59522 24 5.75V17.25C24 18.4048 23.0656 19.3409 21.913 19.3409C20.7605 19.3409 19.8261 18.4048 19.8261 17.25V5.75Z" fill="url(#paint0_linear_517_3114)"/>
<defs>
<linearGradient id="paint0_linear_517_3114" x1="12" y1="0" x2="12" y2="23" gradientUnits="userSpaceOnUse">
<stop stop-color="#CCE0FF"/>
<stop offset="1" stop-color="white"/>
</linearGradient>
</defs>
</svg>
