<svg width="18" height="22" viewBox="0 0 18 22" fill="none" xmlns="http://www.w3.org/2000/svg">
<path fill-rule="evenodd" clip-rule="evenodd" d="M13.8462 4.8125C13.8462 7.47037 11.6765 9.625 9 9.625C6.32354 9.625 4.15385 7.47037 4.15385 4.8125C4.15385 2.15463 6.32354 0 9 0C11.6765 0 13.8462 2.15463 13.8462 4.8125ZM12.4615 4.8125C12.4615 6.71098 10.9118 8.25 9 8.25C7.08825 8.25 5.53846 6.71098 5.53846 4.8125C5.53846 2.91402 7.08825 1.375 9 1.375C10.9118 1.375 12.4615 2.91402 12.4615 4.8125Z" fill="#727479"/>
<path fill-rule="evenodd" clip-rule="evenodd" d="M6.92308 11.6875C3.09958 11.6875 0 14.5731 0 18.1328C0 20.2686 1.85973 22 4.15385 22H13.8462C16.1403 22 18 21 18 18.1328C18 14.5731 14.9004 11.6875 11.0769 11.6875H6.92308ZM1.38462 18.1328C1.38462 15.4147 3.77874 13.0625 6.92308 13.0625H11.0769C14.2213 13.0625 16.6154 15.4147 16.6154 18.1328C16.6154 19.427 15.4611 20.625 13.8462 20.625H4.15385C2.5389 20.625 1.38462 19.427 1.38462 18.1328Z" fill="#727479"/>
</svg>
