<svg width="22" height="22" viewBox="0 0 22 22" fill="none" xmlns="http://www.w3.org/2000/svg">
<path fill-rule="evenodd" clip-rule="evenodd" d="M5 3C5 1.34314 6.34314 0 8 0H14C15.6569 0 17 1.34314 17 3V19C17 20.6569 15.6569 22 14 22H8C6.34314 22 5 20.6569 5 19V3ZM8 2C7.44769 2 7 2.44775 7 3V19C7 19.5522 7.44769 20 8 20H14C14.5523 20 15 19.5522 15 19V3C15 2.44775 14.5523 2 14 2H8Z" fill="#727479"/>
<path d="M19 5.5C19 4.67163 19.6716 4 20.5 4C21.3284 4 22 4.67163 22 5.5V16.5C22 17.3284 21.3284 18 20.5 18C19.6716 18 19 17.3284 19 16.5V5.5Z" fill="#727479"/>
<path d="M1.5 4C0.67157 4 0 4.67163 0 5.5V16.5C0 17.3284 0.67157 18 1.5 18C2.32843 18 3 17.3284 3 16.5V5.5C3 4.67163 2.32843 4 1.5 4Z" fill="#727479"/>
</svg>
