<svg width="20" height="22" viewBox="0 0 20 22" fill="none" xmlns="http://www.w3.org/2000/svg">
<path fill-rule="evenodd" clip-rule="evenodd" d="M10 7.83333C12.0322 7.83333 13.5 6.31978 13.5 4.66667C13.5 3.01356 12.0322 1.5 10 1.5C7.96785 1.5 6.5 3.01356 6.5 4.66667C6.5 6.31978 7.96785 7.83333 10 7.83333ZM12.1429 10.6667C16.4381 10.6667 20 13.7234 20 17.5833C20 21 18 22 15 22H5C2 22 0 21 0 17.5833C0 13.7234 3.56191 10.6667 7.85714 10.6667H12.1429ZM8.67092 9.16667C6.55463 8.6234 5 6.81448 5 4.66667C5 2.08934 7.23858 0 10 0C12.7614 0 15 2.08934 15 4.66667C15 6.81448 13.4454 8.6234 11.3291 9.16667C10.9059 9.27531 10.4602 9.33333 10 9.33333C9.53981 9.33333 9.09413 9.27531 8.67092 9.16667ZM7.85714 12.1667C4.1932 12.1667 1.5 14.7361 1.5 17.5833C1.5 18.9908 1.8974 19.5805 2.29297 19.8866C2.77185 20.2572 3.61099 20.5 5 20.5H15C16.389 20.5 17.2281 20.2572 17.707 19.8866C18.1026 19.5805 18.5 18.9908 18.5 17.5833C18.5 14.7361 15.8068 12.1667 12.1429 12.1667H7.85714Z" fill="url(#paint0_linear_517_3117)"/>
<defs>
<linearGradient id="paint0_linear_517_3117" x1="10" y1="0" x2="10" y2="22" gradientUnits="userSpaceOnUse">
<stop stop-color="#CCE0FF"/>
<stop offset="1" stop-color="white"/>
</linearGradient>
</defs>
</svg>
